<?xml version="1.0" encoding="UTF-8" standalone="no"?>
<!-- Created with Inkscape (http://www.inkscape.org/) -->
<svg
   xmlns:dc="http://purl.org/dc/elements/1.1/"
   xmlns:cc="http://web.resource.org/cc/"
   xmlns:rdf="http://www.w3.org/1999/02/22-rdf-syntax-ns#"
   xmlns:svg="http://www.w3.org/2000/svg"
   xmlns="http://www.w3.org/2000/svg"
   xmlns:sodipodi="http://sodipodi.sourceforge.net/DTD/sodipodi-0.dtd"
   xmlns:inkscape="http://www.inkscape.org/namespaces/inkscape"
   width="744.09448819"
   height="1052.3622047"
   id="svg2164"
   sodipodi:version="0.32"
   inkscape:version="0.45.1"
   sodipodi:docbase="C:\Documents and Settings\cmd2\My Documents\sb\bluetrees\blue-trees.com\yahoo-maps"
   sodipodi:docname="bluetreeforest.svg"
   inkscape:output_extension="org.inkscape.output.svg.inkscape"
   inkscape:export-filename="C:\Documents and Settings\cmd2\My Documents\sb\bluetrees\blue-trees.com\yahoo-maps\bluetree.png"
   inkscape:export-xdpi="4.8043423"
   inkscape:export-ydpi="4.8043423">
  <defs
     id="defs2166" />
  <sodipodi:namedview
     id="base"
     pagecolor="#ffffff"
     bordercolor="#666666"
     borderopacity="1.0"
     gridtolerance="10000"
     guidetolerance="10"
     objecttolerance="10"
     inkscape:pageopacity="0.0"
     inkscape:pageshadow="2"
     inkscape:zoom="0.98994949"
     inkscape:cx="344.2899"
     inkscape:cy="563.95151"
     inkscape:document-units="px"
     inkscape:current-layer="layer1"
     inkscape:window-width="1920"
     inkscape:window-height="1144"
     inkscape:window-x="0"
     inkscape:window-y="22" />
  <metadata
     id="metadata2169">
    <rdf:RDF>
      <cc:Work
         rdf:about="">
        <dc:format>image/svg+xml</dc:format>
        <dc:type
           rdf:resource="http://purl.org/dc/dcmitype/StillImage" />
      </cc:Work>
    </rdf:RDF>
  </metadata>
  <g
     inkscape:label="Layer 1"
     inkscape:groupmode="layer"
     id="layer1">
    <path
       style="fill:#2a2aff;fill-rule:evenodd;stroke:#000000;stroke-width:0.45571524px;stroke-linecap:butt;stroke-linejoin:miter;stroke-opacity:1"
       d="M 558.95831,583.8347 C 564.30161,569.58617 568.72989,568.18635 567.49675,551.66941 C 565.50598,525.00467 572.15913,509.47094 570.69866,482.57363 C 569.18015,454.60706 558.19506,411.61714 549.70832,377.73863 C 545.10124,359.34746 540.82685,333.9901 532.63144,313.40807 C 525.43465,295.334 519.21006,277.99642 513.41994,258.60796 C 509.20777,244.50329 502.16387,225.35113 500.61228,209.76438 C 499.58811,199.47599 497.05459,189.9424 497.05459,179.38606 C 497.05459,169.24556 504.02822,183.55801 504.8815,187.12955 C 507.35592,197.48671 511.85058,206.89189 514.84302,216.91222 C 518.82988,230.26242 524.32773,242.17068 528.71799,255.03403 C 531.53635,263.29177 557.22203,332.01586 559.66984,340.21247 C 560.99284,344.64258 536.65917,259.75596 535.12182,244.31227 C 532.8328,221.31757 521.80595,200.99999 518.4007,178.19475 C 516.49135,165.40768 509.30704,156.5286 503.10266,149.60339 C 499.29503,145.35338 494.01611,139.15526 491.00653,134.1164 C 488.88514,130.56461 496.6603,137.5017 499.54497,138.88162 C 504.485,141.24475 507.71068,147.91282 511.6411,153.17731 C 516.40676,159.56052 512.35264,141.13053 512.35264,135.90336 C 512.35264,127.9551 510.57379,120.50775 510.57379,112.67288 C 510.57379,107.99404 508.95448,100.13957 513.41994,106.12069 C 516.52691,110.28222 518.00082,123.62102 518.75647,129.94683 C 519.31528,134.62485 529.07375,178.66718 529.07375,183.55563 C 529.07375,194.63851 525.51607,136.08484 525.51607,131.73378 C 522.32287,112.09593 522.26301,107.70583 524.44876,85.272824 C 528.46119,83.593354 534.76605,116.88308 534.76605,121.01203 C 534.76605,127.18368 537.18421,144.36342 537.96797,154.36861 C 538.48688,160.993 541.27368,169.70696 541.88142,175.81213 C 542.85202,185.56245 540.28827,178.11725 543.30449,186.5339 C 548.06382,199.81458 548.00877,201.39936 552.91024,214.52961 C 553.36348,215.74375 553.85896,216.91222 554.33331,218.10352 C 558.48254,228.52392 562.18812,240.43702 566.78521,249.67316 C 566.83549,249.77417 567.97125,233.79309 567.49675,221.08179 C 566.61809,197.54395 564.19584,176.67196 557.891,155.55992 C 552.31011,136.87205 545.02686,115.17835 542.59296,94.803284 C 542.07825,90.494454 537.45726,82.361814 540.81411,83.485864 C 546.20797,85.292024 553.30865,96.733034 555.75639,104.92938 C 560.04805,119.30021 564.19593,135.48402 569.98713,148.41208 C 576.13562,162.13774 577.45827,184.56579 577.45827,147.81643 C 577.45827,130.30241 575.24468,121.27649 579.94865,105.52504 C 587.19612,87.007554 585.64579,81.756574 593.46785,73.955414 C 598.69563,82.404364 594.31019,94.113494 593.11208,106.71634 C 591.48694,127.3995 590.28447,142.35257 592.04477,162.11211 C 592.04477,168.89316 590.03929,185.12639 587.06402,190.10781 C 585.50503,192.71798 586.59535,209.9534 584.9294,212.74264 C 582.90844,216.12629 588.9716,348.64046 590.26593,351.52988 C 596.78873,366.09112 597.77273,221.82598 600.22745,211.55134 C 600.46462,210.55858 601.76911,192.29188 602.00629,191.29912 C 604.56469,159.98868 604.408,152.12287 606.98705,128.75552 C 606.98705,117.11587 614.10242,108.35696 614.10242,96.590244 C 614.10242,89.261034 614.44534,80.421574 613.39088,73.359754 C 610.89701,56.658064 618.58584,81.967884 621.21779,85.272824 C 624.92664,89.930054 616.84128,134.14976 616.94857,141.26424 C 617.07666,149.75836 613.03512,165.24679 613.03512,174.62083 C 613.03512,187.11764 631.88687,136.81346 632.95815,132.32944 C 634.59671,125.47093 641.69177,117.38019 643.6312,110.88592 C 649.22654,103.132 655.79565,85.739054 656.79463,96.590244 C 652.59904,111.62558 648.69358,123.3263 640.78505,140.66858 C 637.72578,147.37715 627.83293,181.34052 622.99663,182.95997 C 620.82239,197.57741 617.21611,188.15943 617.30434,206.78611 C 617.30434,212.48608 614.45819,285.3491 614.45819,290.77324 C 614.45819,291.68646 633.24863,229.88272 637.9389,218.10352 C 643.90512,203.11993 644.58407,189.08725 647.18889,171.64257 C 648.40365,155.83081 659.05528,134.6646 663.55423,119.82072 C 664.64256,115.55301 670.74194,103.82689 673.51575,102.54677 C 679.20638,92.997944 695.08457,79.293024 716.9195,81.698904 C 692.60128,107.62469 690.68339,98.680064 681.69842,110.88592 C 678.34109,109.48065 661.41962,162.49433 661.41962,166.28168 C 667.8276,164.62968 675.27536,151.04734 681.34266,147.22077 C 687.26466,144.74201 692.80448,132.32944 699.13108,132.32944 C 702.657,132.32944 685.57031,163.29955 682.76573,166.87733 C 673.07841,179.23538 672.71118,178.1636 661.77539,193.68174 C 655.07898,203.18411 650.37,216.14063 648.61196,226.44267 C 646.93151,236.29004 646.21119,246.91547 643.98697,256.22534 C 641.69824,265.80525 639.96134,279.04798 635.44852,286.60367 C 633.73003,289.4809 629.96403,321.54684 629.40046,325.32113 C 627.23909,339.796 645.41281,292.7929 647.90042,287.79497 C 653.66766,276.20786 662.31275,264.31275 668.53499,253.24707 C 675.17959,241.43028 713.9592,178.48701 719.40989,171.64256 C 718.882,194.92257 689.50076,241.28397 685.25611,259.20361 C 697.01852,250.32397 686.17967,258.56604 716.56374,242.52532 C 713.77818,253.84273 671.54084,291.87986 671.02537,297.92108 C 658.24245,320.78391 659.49699,318.74351 650.74657,349.14727 C 649.64133,356.54918 629.43653,384.17005 627.62162,390.24735 C 627.44215,390.84833 662.86676,359.94517 671.02537,350.93423 C 685.25925,335.21334 708.80873,300.69871 717.27527,277.07321 C 720.97895,266.73827 713.85988,281.67166 720.47719,279.45582 C 730.70493,276.03101 709.02469,329.0277 706.95799,333.06462 C 682.14689,364.00139 677.62907,372.41664 669.24653,378.92994 C 650.30563,391.81674 651.63212,406.01566 628.68893,425.98656 C 621.68007,443.58866 616.94857,456.39648 616.94857,476.61709 C 616.94857,497.78969 611.31018,520.37058 615.52549,541.54331 C 618.80713,558.02639 620.86202,573.02873 620.86202,590.38688 C 620.86202,606.47258 623.51788,606.46953 613.74665,606.46953 C 608.22776,606.46953 599.32712,610.77888 594.17938,606.46953 C 590.32236,603.24067 586.14891,602.42737 582.43902,599.32169 C 579.22168,596.62833 575.19608,597.1301 572.12174,594.55646 C 570.23437,592.97648 568.06442,591.22015 566.07368,590.38688 C 563.91393,589.48288 558.53984,579.06948 556.11216,579.06948"
       id="path2172"
       sodipodi:nodetypes="cssssssssssssssssssssssccssssssssssssssccccssssccssssssccsccsscccccccssssssssscccccsssscccsssssssss" />
    <path
       style="fill:#2a2aff;fill-rule:evenodd;stroke:#000000;stroke-width:0.45571524px;stroke-linecap:butt;stroke-linejoin:miter;stroke-opacity:1"
       d="M 406.60223,672.86619 C 411.94553,658.61766 416.37382,657.21784 415.14067,640.7009 C 413.1499,614.03616 419.80305,598.50243 418.34259,571.60512 C 416.82407,543.63855 405.83899,500.64863 397.35225,466.77012 C 392.74517,448.37895 388.47078,423.02159 380.27536,402.43956 C 373.07858,384.36549 366.85398,367.02791 361.06387,347.63945 C 356.85169,333.53478 349.8078,314.38262 348.2562,298.79587 C 347.23204,288.50748 344.69852,278.97389 344.69852,268.41755 C 344.69852,258.27705 351.67215,272.5895 352.52542,276.16104 C 354.99985,286.5182 359.4945,295.92338 362.48694,305.94371 C 366.47381,319.29391 371.97165,331.20217 376.36191,344.06552 C 379.18027,352.32326 404.86595,421.04735 407.31377,429.24396 C 408.63676,433.67407 384.3031,348.78745 382.76574,333.34376 C 380.47672,310.34906 369.44987,290.03148 366.04462,267.22624 C 364.13528,254.43917 356.95096,245.56009 350.74658,238.63488 C 346.93895,234.38487 341.66004,228.18675 338.65045,223.14789 C 336.52906,219.5961 344.30422,226.53319 347.1889,227.91311 C 352.12893,230.27624 355.3546,236.94431 359.28502,242.2088 C 364.05068,248.59201 359.99656,230.16202 359.99656,224.93485 C 359.99656,216.98659 358.21772,209.53924 358.21772,201.70437 C 358.21772,197.02553 356.59841,189.17106 361.06387,195.15218 C 364.17083,199.31371 365.64475,212.65251 366.40039,218.97832 C 366.95921,223.65634 376.71768,267.69867 376.71768,272.58712 C 376.71768,283.67 373.15999,225.11633 373.15999,220.76527 C 369.96679,201.12742 369.90694,196.73732 372.09269,174.30431 C 376.10512,172.62484 382.40997,205.91457 382.40997,210.04352 C 382.40997,216.21517 384.82814,233.39491 385.61189,243.4001 C 386.13081,250.02449 388.9176,258.73845 389.52534,264.84362 C 390.49595,274.59394 387.93219,267.14874 390.94842,275.56539 C 395.70774,288.84607 395.65269,290.43085 400.55416,303.5611 C 401.0074,304.77524 401.50288,305.94371 401.97724,307.13501 C 406.12646,317.55541 409.83205,329.46851 414.42913,338.70465 C 414.47941,338.80566 415.61518,322.82458 415.14067,310.11328 C 414.26201,286.57544 411.83976,265.70345 405.53492,244.59141 C 399.95403,225.90354 392.67078,204.20984 390.23688,183.83477 C 389.72217,179.52594 385.10119,171.3933 388.45804,172.51735 C 393.85189,174.32351 400.95258,185.76452 403.40031,193.96087 C 407.69197,208.3317 411.83986,224.51551 417.63105,237.44357 C 423.77954,251.16923 425.10219,273.59728 425.10219,236.84792 C 425.10219,219.3339 422.8886,210.30798 427.59257,194.55653 C 434.84004,176.03904 433.28971,170.78806 441.11177,162.9869 C 446.33955,171.43585 441.95411,183.14498 440.756,195.74783 C 439.13086,216.43099 437.92839,231.38406 439.68869,251.1436 C 439.68869,257.92465 437.68321,274.15788 434.70794,279.1393 C 433.14895,281.74947 434.23927,298.98489 432.57332,301.77413 C 430.55236,305.15778 437.11143,443.62512 437.90985,440.56137 C 448.91663,398.32555 448.99227,265.56634 447.87137,300.58283 C 447.83871,301.603 449.41303,281.32337 449.65021,280.33061 C 452.20861,249.02017 452.05192,241.15436 454.63097,217.78701 C 454.63097,206.14736 461.74634,197.38845 461.74634,185.62173 C 461.74634,178.29252 462.08926,169.45306 461.0348,162.39124 C 458.54093,145.68955 466.22976,170.99937 468.86171,174.30431 C 472.57056,178.96154 464.4852,223.18125 464.59249,230.29573 C 464.72058,238.78985 460.67904,254.27828 460.67904,263.65232 C 460.67904,276.14913 479.53079,225.84495 480.60207,221.36093 C 482.24063,214.50242 489.33569,206.41168 491.27512,199.91741 C 496.87046,192.16349 503.43957,174.77054 504.43855,185.62173 C 500.24296,200.65707 496.3375,212.35779 488.42897,229.70007 C 485.3697,236.40864 475.47685,270.37201 470.64055,271.99146 C 468.46631,286.6089 464.86003,277.19092 464.94826,295.8176 C 464.94826,301.51757 462.10211,374.38059 462.10211,379.80473 C 462.10211,380.71795 480.89255,318.91421 485.58282,307.13501 C 491.54904,292.15142 492.22799,278.11874 494.83281,260.67406 C 496.04757,244.8623 506.6992,223.69609 511.19815,208.85221 C 512.28648,204.5845 518.38586,192.85838 521.15967,191.57826 C 526.8503,182.02943 542.72849,168.32451 564.56342,170.73039 C 540.2452,196.65618 538.32731,187.71155 529.34234,199.91741 C 525.98501,198.51214 509.06354,251.52582 509.06354,255.31317 C 515.47152,253.66117 522.91928,240.07883 528.98658,236.25226 C 534.90858,233.7735 540.4484,221.36093 546.775,221.36093 C 550.30092,221.36093 533.21423,252.33104 530.40965,255.90882 C 520.72233,268.26687 520.3551,267.19509 509.41931,282.71323 C 502.7229,292.2156 498.01392,305.17212 496.25588,315.47416 C 494.57543,325.32153 493.85511,335.94696 491.63089,345.25683 C 489.34216,354.83674 487.60526,368.07947 483.09244,375.63516 C 481.37395,378.51239 477.60795,410.57833 477.04438,414.35262 C 474.88301,428.82749 493.05673,381.82439 495.54434,376.82646 C 501.31158,365.23935 509.95667,353.34424 516.17891,342.27856 C 522.82351,330.46177 561.60312,267.5185 567.05381,260.67405 C 566.52592,283.95406 537.14468,330.31546 532.90003,348.2351 C 544.66244,339.35546 533.82359,347.59753 564.20766,331.55681 C 561.4221,342.87422 519.18476,380.91135 518.66929,386.95257 C 505.88637,409.8154 507.14091,407.775 498.39049,438.17876 C 497.28525,445.58067 477.08045,473.20154 475.26554,479.27884 C 475.08607,479.87982 510.51068,448.97666 518.66929,439.96572 C 532.90317,424.24483 556.45265,389.7302 564.91919,366.1047 C 568.62287,355.76976 561.5038,370.70315 568.12111,368.48731 C 578.34885,365.0625 556.66861,418.05919 554.60191,422.09611 C 529.79081,453.03288 525.27299,461.44813 516.89045,467.96143 C 497.94955,480.84823 499.27604,495.04715 476.33285,515.01805 C 469.32399,532.62015 464.59249,545.42797 464.59249,565.64858 C 464.59249,586.82118 458.9541,609.40207 463.16941,630.5748 C 466.45105,647.05788 468.50594,662.06022 468.50594,679.41837 C 468.50594,695.50407 471.1618,695.50102 461.39057,695.50102 C 455.87168,695.50102 446.97104,699.81037 441.8233,695.50102 C 437.96628,692.27216 433.79283,691.45886 430.08294,688.35318 C 426.8656,685.65982 422.84,686.16159 419.76566,683.58795 C 417.87829,682.00797 415.70835,680.25164 413.7176,679.41837 C 411.55785,678.51437 406.18377,668.10097 403.75608,668.10097"
       id="path2230"
       sodipodi:nodetypes="cssssssssssssssssssssssccssssssssssssssccccssssccssssssccsccsscccccccssssssssscccccsssscccsssssssss" />
    <path
       style="fill:#2a2aff;fill-rule:evenodd;stroke:#000000;stroke-width:0.45571524px;stroke-linecap:butt;stroke-linejoin:miter;stroke-opacity:1"
       d="M 260.13011,759.7393 C 265.47341,745.49077 269.90169,744.09095 268.66855,727.57401 C 266.67778,700.90927 273.33093,685.37554 271.87046,658.47823 C 270.35195,630.51166 259.36686,587.52174 250.88012,553.64323 C 246.27304,535.25206 241.99865,509.8947 233.80324,489.31267 C 226.60645,471.2386 220.38186,453.90102 214.59174,434.51256 C 210.37957,420.40789 203.33567,401.25573 201.78408,385.66898 C 200.75991,375.38059 198.22639,365.847 198.22639,355.29066 C 198.22639,345.15016 205.20002,359.46261 206.0533,363.03415 C 208.52772,373.39131 213.02238,382.79649 216.01482,392.81682 C 220.00168,406.16702 225.49953,418.07528 229.88979,430.93863 C 232.70815,439.19637 258.39383,507.92046 260.84164,516.11707 C 262.16464,520.54718 237.83097,435.66056 236.29362,420.21687 C 234.0046,397.22217 222.97775,376.90459 219.5725,354.09935 C 217.66315,341.31228 210.47884,332.4332 204.27446,325.50799 C 200.46683,321.25798 195.18791,315.05986 192.17833,310.021 C 190.05694,306.46921 197.8321,313.4063 200.71677,314.78622 C 205.6568,317.14935 208.88248,323.81742 212.8129,329.08191 C 217.57856,335.46512 213.52444,317.03513 213.52444,311.80796 C 213.52444,303.8597 211.74559,296.41235 211.74559,288.57748 C 211.74559,283.89864 210.12628,276.04417 214.59174,282.02529 C 217.69871,286.18682 219.17262,299.52562 219.92827,305.85143 C 220.48708,310.52945 230.24555,354.57178 230.24555,359.46023 C 230.24555,370.54311 226.68787,311.98944 226.68787,307.63838 C 223.49467,288.00053 223.43481,283.61043 225.62056,261.17742 C 229.63299,259.49795 235.93785,292.78768 235.93785,296.91663 C 235.93785,303.08828 238.35601,320.26802 239.13977,330.27321 C 239.65868,336.8976 242.44548,345.61156 243.05322,351.71673 C 244.02382,361.46705 241.46007,354.02185 244.47629,362.4385 C 249.23562,375.71918 249.18057,377.30396 254.08204,390.43421 C 254.53528,391.64835 255.03076,392.81682 255.50511,394.00812 C 259.65434,404.42852 263.35992,416.34162 267.95701,425.57776 C 268.00729,425.67877 269.14305,409.69769 268.66855,396.98639 C 267.78989,373.44855 265.36764,352.57656 259.0628,331.46452 C 253.48191,312.77665 246.19866,291.08295 243.76476,270.70788 C 243.25005,266.39905 238.62906,258.26641 241.98591,259.39046 C 247.37977,261.19662 254.48045,272.63763 256.92819,280.83398 C 261.21985,295.20481 265.36773,311.38862 271.15893,324.31668 C 277.30742,338.04234 278.63007,360.47039 278.63007,323.72103 C 278.63007,306.20701 276.41648,297.18109 281.12045,281.42964 C 288.36792,262.91215 286.81759,257.66117 294.63965,249.86001 C 299.86743,258.30896 295.48199,270.01809 294.28388,282.62094 C 292.65874,303.3041 291.45627,318.25717 293.21657,338.01671 C 293.21657,344.79776 291.21109,361.03099 288.23582,366.01241 C 286.67683,368.62258 287.76715,385.858 286.1012,388.64724 C 284.08024,392.03089 290.1434,524.54506 291.43773,527.43448 C 297.96053,541.99572 298.94453,397.73058 301.39925,387.45594 C 301.63642,386.46318 302.94091,368.19648 303.17809,367.20372 C 305.73649,335.89328 305.5798,328.02747 308.15885,304.66012 C 308.15885,293.02047 315.27422,284.26156 315.27422,272.49484 C 315.27422,265.16563 315.61714,256.32617 314.56268,249.26435 C 312.06881,232.56267 319.75764,257.87248 322.38959,261.17742 C 326.09844,265.83465 318.01308,310.05436 318.12037,317.16884 C 318.24846,325.66296 314.20692,341.15139 314.20692,350.52543 C 314.20692,363.02224 333.05867,312.71806 334.12995,308.23404 C 335.76851,301.37553 342.86357,293.28479 344.803,286.79052 C 350.39834,279.0366 356.96745,261.64365 357.96643,272.49484 C 353.77084,287.53018 349.86538,299.2309 341.95685,316.57318 C 338.89758,323.28175 329.00473,357.24512 324.16843,358.86457 C 321.99419,373.48201 318.38791,364.06403 318.47614,382.69071 C 318.47614,388.39068 315.62999,461.2537 315.62999,466.67784 C 315.62999,467.59106 334.42043,405.78732 339.1107,394.00812 C 345.07692,379.02453 345.75587,364.99185 348.36069,347.54717 C 349.57545,331.73541 360.22708,310.5692 364.72603,295.72532 C 365.81436,291.45761 371.91374,279.73149 374.68755,278.45137 C 380.37818,268.90254 396.25637,255.19762 418.0913,257.6035 C 393.77308,283.52929 391.85519,274.58466 382.87022,286.79052 C 379.51289,285.38525 362.59142,338.39893 362.59142,342.18628 C 368.9994,340.53428 376.44716,326.95194 382.51446,323.12537 C 388.43646,320.64661 393.97628,308.23404 400.30288,308.23404 C 403.8288,308.23404 386.74211,339.20415 383.93753,342.78193 C 374.25021,355.13998 373.88298,354.0682 362.94719,369.58634 C 356.25078,379.08871 351.5418,392.04523 349.78376,402.34727 C 348.10331,412.19464 347.38299,422.82007 345.15877,432.12994 C 342.87004,441.70985 341.13314,454.95258 336.62032,462.50827 C 334.90183,465.3855 331.13583,497.45144 330.57226,501.22573 C 328.41089,515.7006 346.58461,468.6975 349.07222,463.69957 C 354.83946,452.11246 363.48455,440.21735 369.70679,429.15167 C 376.35139,417.33488 415.131,354.39161 420.58169,347.54716 C 420.0538,370.82717 390.67256,417.18857 386.42791,435.10821 C 398.19032,426.22857 387.35147,434.47064 417.73554,418.42992 C 414.94998,429.74733 372.71264,467.78446 372.19717,473.82568 C 359.41425,496.68851 360.66879,494.64811 351.91837,525.05187 C 350.81313,532.45378 330.60833,560.07465 328.79342,566.15195 C 328.61395,566.75293 364.03856,535.84977 372.19717,526.83883 C 386.43105,511.11794 409.98053,476.60331 418.44707,452.97781 C 422.15075,442.64287 415.03168,457.57626 421.64899,455.36042 C 431.87673,451.93561 410.19649,504.9323 408.12979,508.96922 C 383.31869,539.90599 378.80087,548.32124 370.41833,554.83454 C 351.47743,567.72134 352.80392,581.92026 329.86073,601.89116 C 322.85187,619.49326 318.12037,632.30108 318.12037,652.52169 C 318.12037,673.69429 312.48198,696.27518 316.69729,717.44791 C 319.97893,733.93099 322.03382,748.93333 322.03382,766.29148 C 322.03382,782.37718 324.68968,782.37413 314.91845,782.37413 C 309.39956,782.37413 300.49892,786.68348 295.35118,782.37413 C 291.49416,779.14527 287.32071,778.33197 283.61082,775.22629 C 280.39348,772.53293 276.36788,773.0347 273.29354,770.46106 C 271.40617,768.88108 269.23622,767.12475 267.24548,766.29148 C 265.08573,765.38748 259.71164,754.97408 257.28396,754.97408"
       id="path2232"
       sodipodi:nodetypes="cssssssssssssssssssssssccssssssssssssssccccssssccssssssccsccsscccccccssssssssscccccsssscccsssssssss" />
    <path
       style="fill:#2a2aff;fill-rule:evenodd;stroke:#000000;stroke-width:0.45571524px;stroke-linecap:butt;stroke-linejoin:miter;stroke-opacity:1"
       d="M 109.61739,830.44998 C 114.96069,816.20145 119.38897,814.80163 118.15583,798.28469 C 116.16506,771.61995 122.81821,756.08622 121.35774,729.18891 C 119.83923,701.22234 108.85414,658.23242 100.3674,624.35391 C 95.760318,605.96274 91.485928,580.60538 83.290518,560.02335 C 76.093728,541.94928 69.869138,524.6117 64.079018,505.22324 C 59.866838,491.11857 52.822948,471.96641 51.271358,456.37966 C 50.247188,446.09127 47.713668,436.55768 47.713668,426.00134 C 47.713668,415.86084 54.687298,430.17329 55.540578,433.74483 C 58.014998,444.10199 62.509648,453.50717 65.502088,463.5275 C 69.488958,476.8777 74.986808,488.78596 79.377058,501.64931 C 82.195428,509.90705 107.88111,578.63114 110.32892,586.82775 C 111.65192,591.25786 87.318248,506.37124 85.780898,490.92755 C 83.491868,467.93285 72.465028,447.61527 69.059778,424.81003 C 67.150428,412.02296 59.966118,403.14388 53.761738,396.21867 C 49.954108,391.96866 44.675188,385.77054 41.665608,380.73168 C 39.544208,377.17989 47.319378,384.11698 50.204048,385.4969 C 55.144078,387.86003 58.369748,394.5281 62.300178,399.79259 C 67.065838,406.1758 63.011718,387.74581 63.011718,382.51864 C 63.011718,374.57038 61.232868,367.12303 61.232868,359.28816 C 61.232868,354.60932 59.613558,346.75485 64.079018,352.73597 C 67.185988,356.8975 68.659898,370.2363 69.415548,376.56211 C 69.974358,381.24013 79.732828,425.28246 79.732828,430.17091 C 79.732828,441.25379 76.175148,382.70012 76.175148,378.34906 C 72.981938,358.71121 72.922088,354.32111 75.107838,331.8881 C 79.120268,330.20863 85.425128,363.49836 85.425128,367.62731 C 85.425128,373.79896 87.843288,390.9787 88.627048,400.98389 C 89.145958,407.60828 91.932758,416.32224 92.540498,422.42741 C 93.511098,432.17773 90.947348,424.73253 93.963568,433.14918 C 98.722898,446.42986 98.667838,448.01464 103.56932,461.14489 C 104.02256,462.35903 104.51803,463.5275 104.99239,464.7188 C 109.14162,475.1392 112.8472,487.0523 117.44429,496.28844 C 117.49456,496.38945 118.63033,480.40837 118.15583,467.69707 C 117.27717,444.15923 114.85492,423.28724 108.55008,402.1752 C 102.96919,383.48733 95.685938,361.79363 93.252028,341.41856 C 92.737328,337.10973 88.116338,328.97709 91.473188,330.10114 C 96.867038,331.9073 103.96773,343.34831 106.41547,351.54466 C 110.70713,365.91549 114.85501,382.0993 120.64621,395.02736 C 126.7947,408.75302 128.11735,431.18107 128.11735,394.43171 C 128.11735,376.91769 125.90376,367.89177 130.60773,352.14032 C 137.8552,333.62283 136.30487,328.37185 144.12693,320.57069 C 149.35471,329.01964 144.96927,340.72877 143.77116,353.33162 C 142.14602,374.01478 140.94355,388.96785 142.70385,408.72739 C 142.70385,415.50844 140.69837,431.74167 137.7231,436.72309 C 136.16411,439.33326 137.25443,456.56868 135.58848,459.35792 C 133.56752,462.74157 139.63068,595.25574 140.92501,598.14516 C 147.44781,612.7064 148.43181,468.44126 150.88653,458.16662 C 151.1237,457.17386 152.42819,438.90716 152.66537,437.9144 C 155.22377,406.60396 155.06708,398.73815 157.64613,375.3708 C 157.64613,363.73115 164.7615,354.97224 164.7615,343.20552 C 164.7615,335.87631 165.10442,327.03685 164.04996,319.97503 C 161.55609,303.27334 169.24492,328.58316 171.87687,331.8881 C 175.58572,336.54533 167.50036,380.76504 167.60765,387.87952 C 167.73574,396.37364 163.6942,411.86207 163.6942,421.23611 C 163.6942,433.73292 182.54595,383.42874 183.61723,378.94472 C 185.25579,372.08621 192.35085,363.99547 194.29028,357.5012 C 199.88562,349.74728 206.45473,332.35433 207.45371,343.20552 C 203.25812,358.24086 199.35266,369.94158 191.44413,387.28386 C 188.38486,393.99243 178.49201,427.9558 173.65571,429.57525 C 171.48147,444.19269 167.87519,434.77471 167.96342,453.40139 C 167.96342,459.10136 165.11727,531.96438 165.11727,537.38852 C 165.11727,538.30174 183.90771,476.498 188.59798,464.7188 C 194.5642,449.73521 195.24315,435.70253 197.84797,418.25785 C 199.06273,402.44609 209.71436,381.27988 214.21331,366.436 C 215.30164,362.16829 221.40102,350.44217 224.17483,349.16205 C 229.86546,339.61322 245.74365,325.9083 267.57858,328.31418 C 243.26036,354.23997 241.34247,345.29534 232.3575,357.5012 C 229.00017,356.09593 212.0787,409.10961 212.0787,412.89696 C 218.48668,411.24496 225.93444,397.66262 232.00174,393.83605 C 237.92374,391.35729 243.46356,378.94472 249.79016,378.94472 C 253.31608,378.94472 236.22939,409.91483 233.42481,413.49261 C 223.73749,425.85066 223.37026,424.77888 212.43447,440.29702 C 205.73806,449.79939 201.02908,462.75591 199.27104,473.05795 C 197.59059,482.90532 196.87027,493.53075 194.64605,502.84062 C 192.35732,512.42053 190.62042,525.66326 186.1076,533.21895 C 184.38911,536.09618 180.62311,568.16212 180.05954,571.93641 C 177.89817,586.41128 196.07189,539.40818 198.5595,534.41025 C 204.32674,522.82314 212.97183,510.92803 219.19407,499.86235 C 225.83867,488.04556 264.61828,425.10229 270.06897,418.25784 C 269.54108,441.53785 240.15984,487.89925 235.91519,505.81889 C 247.6776,496.93925 236.83875,505.18132 267.22282,489.1406 C 264.43726,500.45801 222.19992,538.49514 221.68445,544.53636 C 208.90153,567.39919 210.15607,565.35879 201.40565,595.76255 C 200.30041,603.16446 180.09561,630.78533 178.2807,636.86263 C 178.10123,637.46361 213.52584,606.56045 221.68445,597.54951 C 235.91833,581.82862 259.46781,547.31399 267.93435,523.68849 C 271.63803,513.35355 264.51896,528.28694 271.13627,526.0711 C 281.36401,522.64629 259.68377,575.64298 257.61707,579.6799 C 232.80597,610.61667 228.28815,619.03192 219.90561,625.54522 C 200.96471,638.43202 202.2912,652.63094 179.34801,672.60184 C 172.33915,690.20394 167.60765,703.01176 167.60765,723.23237 C 167.60765,744.40497 161.96926,766.98586 166.18457,788.15859 C 169.46621,804.64167 171.5211,819.64401 171.5211,837.00216 C 171.5211,853.08786 174.17696,853.08481 164.40573,853.08481 C 158.88684,853.08481 149.9862,857.39416 144.83846,853.08481 C 140.98144,849.85595 136.80799,849.04265 133.0981,845.93697 C 129.88076,843.24361 125.85516,843.74538 122.78082,841.17174 C 120.89345,839.59176 118.7235,837.83543 116.73275,837.00216 C 114.57301,836.09816 109.19892,825.68476 106.77123,825.68476"
       id="path2234"
       sodipodi:nodetypes="cssssssssssssssssssssssccssssssssssssssccccssssccssssssccsccsscccccccssssssssscccccsssscccsssssssss" />
  </g>
</svg>
