<?xml version="1.0" encoding="UTF-8" standalone="no"?>
<!-- Created with Inkscape (http://www.inkscape.org/) -->
<svg
   xmlns:dc="http://purl.org/dc/elements/1.1/"
   xmlns:cc="http://web.resource.org/cc/"
   xmlns:rdf="http://www.w3.org/1999/02/22-rdf-syntax-ns#"
   xmlns:svg="http://www.w3.org/2000/svg"
   xmlns="http://www.w3.org/2000/svg"
   xmlns:sodipodi="http://sodipodi.sourceforge.net/DTD/sodipodi-0.dtd"
   xmlns:inkscape="http://www.inkscape.org/namespaces/inkscape"
   width="744.09448819"
   height="1052.3622047"
   id="svg2164"
   sodipodi:version="0.32"
   inkscape:version="0.45.1"
   sodipodi:docbase="C:\Documents and Settings\cmd2\My Documents\sb\bluetrees\blue-trees.com\yahoo-maps"
   sodipodi:docname="tree1.svg"
   inkscape:output_extension="org.inkscape.output.svg.inkscape">
  <defs
     id="defs2166" />
  <sodipodi:namedview
     id="base"
     pagecolor="#ffffff"
     bordercolor="#666666"
     borderopacity="1.0"
     gridtolerance="10000"
     guidetolerance="10"
     objecttolerance="10"
     inkscape:pageopacity="0.0"
     inkscape:pageshadow="2"
     inkscape:zoom="0.98994949"
     inkscape:cx="344.2899"
     inkscape:cy="563.95151"
     inkscape:document-units="px"
     inkscape:current-layer="layer1"
     inkscape:window-width="1920"
     inkscape:window-height="1144"
     inkscape:window-x="-4"
     inkscape:window-y="-4" />
  <metadata
     id="metadata2169">
    <rdf:RDF>
      <cc:Work
         rdf:about="">
        <dc:format>image/svg+xml</dc:format>
        <dc:type
           rdf:resource="http://purl.org/dc/dcmitype/StillImage" />
      </cc:Work>
    </rdf:RDF>
  </metadata>
  <g
     inkscape:label="Layer 1"
     inkscape:groupmode="layer"
     id="layer1">
    <path
       style="fill:#2a2aff;fill-rule:evenodd;stroke:#000000;stroke-width:1px;stroke-linecap:butt;stroke-linejoin:miter;stroke-opacity:1"
       d="M 209.10158,898.819 C 224.27311,874.65529 236.84657,872.28138 233.34524,844.27075 C 227.69274,799.05073 246.58338,772.7075 242.43661,727.09307 C 238.125,679.66531 206.93446,606.75987 182.83761,549.30622 C 169.75647,518.11713 157.61997,475.11426 134.35029,440.20974 C 113.91607,409.55841 96.242241,380.15609 79.802051,347.27571 C 67.842193,323.35599 47.842084,290.87635 43.436559,264.4432 C 40.528594,246.9954 33.335034,230.82763 33.335034,212.92542 C 33.335034,195.72843 53.13564,220.00053 55.55839,226.0574 C 62.58416,243.62183 75.346063,259.57183 83.842661,276.56503 C 95.162785,299.20528 110.77311,319.40017 123.23861,341.21479 C 131.24094,355.21887 204.17168,471.76619 211.12188,485.6666 C 214.87834,493.17951 145.78645,349.22258 141.42136,323.03204 C 134.92201,284.03595 103.61289,249.57991 93.944187,210.90511 C 88.522874,189.21986 68.124063,174.16208 50.507627,162.41779 C 39.696419,155.21032 24.707718,144.6991 16.162441,136.15382 C 10.139055,130.13044 32.2155,141.89487 40.406102,144.23504 C 54.432594,148.24261 63.591423,159.55081 74.751288,168.47871 C 88.282684,179.30382 76.771593,148.0489 76.771593,139.18428 C 76.771593,125.70505 71.720831,113.07528 71.720831,99.788332 C 71.720831,91.853626 67.123035,78.533441 79.802051,88.676654 C 88.623831,95.734078 92.808789,118.355 94.954339,129.08276 C 96.54101,137.0161 124.24876,211.7063 124.24876,219.99649 C 124.24876,238.79165 114.14724,139.49205 114.14724,132.11321 C 105.0806,98.809897 104.91066,91.364852 111.11678,53.321315 C 122.50948,50.47314 140.4112,106.9283 140.4112,113.93047 C 140.4112,124.39681 147.27722,153.53147 149.50258,170.49901 C 150.97597,181.73313 158.88866,196.5109 160.61426,206.8645 C 163.37014,223.39979 156.09073,210.77369 164.65487,225.04725 C 178.16828,247.5696 178.01196,250.25718 191.92898,272.52442 C 193.21588,274.58345 194.62272,276.56503 195.96959,278.58533 C 207.75071,296.257 218.27217,316.4601 231.32493,332.12342 C 231.46768,332.29472 234.69253,305.19284 233.34524,283.6361 C 230.85041,243.71891 223.97279,208.32266 206.07112,172.51932 C 190.22499,140.82705 169.54527,104.0373 162.63456,69.483756 C 161.17312,62.176536 148.05251,48.3846 157.5838,50.290858 C 172.89885,53.353868 193.06022,72.756372 200.0102,86.656349 C 212.19575,111.02745 223.97305,138.47314 240.41631,160.39749 C 257.87404,183.67447 261.62951,221.70959 261.62951,159.38733 C 261.62951,129.68578 255.34435,114.37897 268.70058,87.666502 C 289.27871,56.263202 284.87678,47.358202 307.08637,34.128417 C 321.92989,48.456776 309.47808,68.313974 306.07622,89.686802 C 301.46187,124.76282 298.04765,150.12133 303.04576,183.63099 C 303.04576,195.13079 297.3515,222.66029 288.90363,231.10816 C 284.47712,235.53467 287.57293,264.76375 282.84271,269.49396 C 277.10447,275.2322 294.31993,499.95941 297.995,504.8595 C 316.51552,529.55352 319.30947,284.89815 326.27927,267.47365 C 326.9527,265.79006 330.6566,234.81206 331.33003,233.12847 C 338.59423,180.02993 338.14934,166.69051 345.47217,127.06245 C 345.47217,107.32308 365.67522,92.469085 365.67522,72.514214 C 365.67522,60.084807 366.6489,45.094209 363.65492,33.118264 C 356.57393,4.7943072 378.40525,47.71655 385.87827,53.321315 C 396.40903,61.219384 373.45181,136.2104 373.75644,148.27565 C 374.12015,162.68061 362.64477,188.94702 362.64477,204.8442 C 362.64477,226.03721 416.17158,140.72769 419.21331,133.12337 C 423.86577,121.49221 444.01115,107.77133 449.51788,96.757874 C 465.40502,83.60821 484.05705,54.111982 486.89353,72.514216 C 474.98076,98.012246 463.89178,117.85519 441.43666,147.2655 C 432.75029,158.64237 404.66099,216.23994 390.92904,218.98633 C 384.7556,243.77564 374.51608,227.80395 374.7666,259.39243 C 374.7666,269.05885 366.68537,392.62529 366.68537,401.82394 C 366.68537,403.37265 420.0381,298.56135 433.35544,278.58533 C 450.29563,253.17505 452.22341,229.37742 459.61941,199.79344 C 463.06855,172.97871 493.31231,137.08351 506.08642,111.91016 C 509.17657,104.67268 526.49486,84.786653 534.3707,82.615739 C 550.5284,66.422136 595.61219,43.180335 657.6093,47.260403 C 588.56126,91.227248 583.11571,76.058285 557.6042,96.757872 C 548.07155,94.374712 500.02551,184.2792 500.02551,190.70206 C 518.22001,187.90047 539.36684,164.86655 556.59406,158.37718 C 573.40871,154.17352 589.13821,133.12337 607.10168,133.12337 C 617.11301,133.12337 568.59786,185.64474 560.63466,191.71221 C 533.12894,212.66989 532.08622,210.85228 501.03566,237.16908 C 482.02218,253.28389 468.65172,275.25651 463.66002,292.72747 C 458.88862,309.42736 456.84338,327.44674 450.52804,343.2351 C 444.02951,359.48141 439.09785,381.9394 426.28437,394.75288 C 421.40495,399.6323 410.71196,454.01207 409.11178,460.41279 C 402.97489,484.96033 454.5765,405.24903 461.63971,396.77318 C 478.01493,377.12291 502.56141,356.95032 520.22856,338.18433 C 539.09491,318.14455 649.20395,211.40075 664.68038,199.79343 C 663.18154,239.27337 579.7578,317.89643 567.70573,348.28586 C 601.10336,333.22712 570.32803,347.20463 656.59916,320.00159 C 648.68997,339.19449 528.76322,403.70064 527.29963,413.94577 C 491.00438,452.71824 494.56646,449.25797 469.72093,500.81889 C 466.58276,513.37159 409.21419,560.21309 404.06102,570.51942 C 403.55143,571.5386 504.13445,519.13077 527.29963,503.84936 C 567.71463,477.18872 634.57995,418.65629 658.61946,378.59044 C 669.13551,361.06369 648.92196,386.38882 667.71083,382.63104 C 696.75102,376.823 635.19313,466.69866 629.32504,473.54477 C 558.87756,526.0096 546.04987,540.2808 522.24886,551.32652 C 468.46894,573.1809 472.23533,597.26047 407.09148,631.12858 C 387.19085,660.97951 373.75644,682.69994 373.75644,716.99154 C 373.75644,752.89757 357.74708,791.1919 369.71583,827.09817 C 379.03357,855.05137 384.86812,880.49345 384.86812,909.93067 C 384.86812,937.20996 392.40904,937.20479 364.66507,937.20479 C 348.99498,937.20479 323.72292,944.51291 309.10668,937.20479 C 298.15521,931.72906 286.30533,930.3498 275.77164,925.08296 C 266.63646,920.51537 255.20636,921.36631 246.47722,917.00174 C 241.11831,914.32229 234.95707,911.34379 229.30463,909.93067 C 223.17235,908.3976 207.91342,890.73778 201.02035,890.73778"
       id="path2172"
       sodipodi:nodetypes="cssssssssssssssssssssssccssssssssssssssccccssssccssssssccsccsscccccccssssssssscccccsssscccsssssssss" />
  </g>
</svg>
